<svg xmlns="http://www.w3.org/2000/svg" viewBox="0 0 200 185" fill="none">
  <!-- Box 1 — top center -->
  <rect x="55" y="36" width="90" height="64" rx="1.5" stroke="white" stroke-width="1.5"/>
  <line x1="100" y1="36" x2="100" y2="100" stroke="white" stroke-width="1"/>
  <line x1="55" y1="62" x2="145" y2="62" stroke="white" stroke-width="0.8" stroke-dasharray="5 3"/>
  <path d="M55 36 L51 17 L100 17 L100 36" stroke="white" stroke-width="1.5" stroke-linejoin="round"/>
  <path d="M100 36 L100 17 L149 17 L145 36" stroke="white" stroke-width="1.5" stroke-linejoin="round"/>

  <!-- Box 2 — bottom left -->
  <rect x="4" y="112" width="88" height="68" rx="1.5" stroke="white" stroke-width="1.5"/>
  <line x1="48" y1="112" x2="48" y2="180" stroke="white" stroke-width="1"/>
  <line x1="4" y1="143" x2="92" y2="143" stroke="white" stroke-width="0.8" stroke-dasharray="5 3"/>
  <path d="M4 112 L1 94 L48 94 L48 112" stroke="white" stroke-width="1.5" stroke-linejoin="round"/>
  <path d="M48 112 L48 94 L91 94 L92 112" stroke="white" stroke-width="1.5" stroke-linejoin="round"/>

  <!-- Box 3 — bottom right -->
  <rect x="108" y="112" width="88" height="68" rx="1.5" stroke="white" stroke-width="1.5"/>
  <line x1="152" y1="112" x2="152" y2="180" stroke="white" stroke-width="1"/>
  <line x1="108" y1="143" x2="196" y2="143" stroke="white" stroke-width="0.8" stroke-dasharray="5 3"/>
  <path d="M108 112 L109 94 L152 94 L152 112" stroke="white" stroke-width="1.5" stroke-linejoin="round"/>
  <path d="M152 112 L152 94 L195 94 L199 112" stroke="white" stroke-width="1.5" stroke-linejoin="round"/>
</svg>
